<svg width="170" height="40" xmlns="http://www.w3.org/2000/svg">

 <g>
  <title>background</title>
  <rect fill="none" id="canvas_background" height="402" width="582" y="-1" x="-1"/>
 </g>
 <g>
  <title>Layer 1</title>
  <g fill="#4D4D4D" id="mcomdocs-logo">
   <path stroke="null" id="MCOM-Docs-Copy" d="m30.69819,26.283992c3.78,0 6.16,-2.884 6.16,-7.224l0,-0.224c0,-4.116 -2.296,-7.168 -6.216,-7.168c-3.92,0 -6.244,2.884 -6.244,7.196l0,0.224c0,4.368 2.66,7.196 6.3,7.196zm-0.056,2.996c-6.132,0 -10.136,-4.396 -10.136,-10.164l0,-0.224c0,-5.852 4.2,-10.192 10.136,-10.192c5.964,0 10.08,4.228 10.08,10.108l0,0.224c0,5.852 -4.004,10.248 -10.08,10.248zm13.564,-0.28l3.36,0l0,-15.12l6.076,15.12l1.204,0l5.964,-15.12l0,15.12l3.724,0l0,-20.02l-4.928,0l-5.152,13.664l-5.264,-13.664l-4.984,0l0,20.02zm35.108,-2.94l2.184,0c4.48,0 6.636,-2.576 6.636,-7l0,-0.224c0,-4.312 -1.96,-6.916 -6.664,-6.916l-2.156,0l0,14.14zm-3.724,2.94l0,-20.02l6.076,0c6.972,0 10.36,3.976 10.36,9.8l0,0.252c0,5.824 -3.388,9.968 -10.416,9.968l-6.02,0zm26.164,-2.352c2.52,0 4.032,-1.876 4.032,-4.872l0,-0.196c0,-3.024 -1.512,-4.872 -4.032,-4.872c-2.52,0 -4.06,1.82 -4.06,4.844l0,0.224c0,2.996 1.484,4.872 4.06,4.872zm-0.028,2.632c-4.312,0 -7.504,-2.996 -7.504,-7.448l0,-0.224c0,-4.536 3.22,-7.56 7.532,-7.56c4.284,0 7.504,2.996 7.504,7.476l0,0.224c0,4.564 -3.22,7.532 -7.532,7.532zm16.896,0c3.976,0 6.524,-2.38 6.776,-5.74l-3.108,0c-0.196,2.072 -1.736,3.136 -3.528,3.136c-2.492,0 -4.06,-1.68 -4.06,-4.872l0,-0.224c0,-3.024 1.652,-4.816 3.976,-4.816c1.792,0 3.08,0.812 3.36,2.772l3.276,0c-0.392,-4.032 -3.444,-5.488 -6.692,-5.488c-4.088,0 -7.392,2.94 -7.392,7.588l0,0.224c0,4.676 3.192,7.42 7.392,7.42zm14.6,0c3.752,0 5.852,-1.708 5.852,-4.676c0,-3.108 -2.044,-3.948 -5.488,-4.48c-2.324,-0.392 -3.024,-0.812 -3.024,-1.876c0,-1.036 0.868,-1.736 2.324,-1.736c1.568,0 2.324,0.616 2.604,1.96l3.136,0c-0.364,-3.304 -2.744,-4.424 -5.74,-4.424c-2.744,0 -5.488,1.456 -5.488,4.396c0,2.744 1.428,3.836 5.292,4.452c2.156,0.364 3.136,0.812 3.136,2.016c0,1.232 -0.812,1.876 -2.632,1.876c-1.988,0 -2.744,-0.868 -2.912,-2.352l-3.192,0c0.14,3.108 2.352,4.844 6.132,4.844z"/>
  </g>
 </g>
</svg>