<svg xmlns="http://www.w3.org/2000/svg" height="18" id="S_ThumbUpOutline_18_N" viewBox="0 0 18 18" width="18">
  <defs>
    <style>
      .fill {
        fill: #707070;
      }
    </style>
  </defs>
  <rect id="Canvas" fill="#ff13dc" opacity="0" width="18" height="18" /><path class="fill" d="M14.922,6l-3.275.005a10.755,10.755,0,0,0,.4-3.04A1.9,1.9,0,0,0,10.461,1,1.663,1.663,0,0,0,8.82,2.582C8.585,4.859,6.194,6.714,4.936,7.269A.5.5,0,0,0,4.5,7h-3a.5.5,0,0,0-.5.5v8a.5.5,0,0,0,.5.5h3a.5.5,0,0,0,.5-.5V15h7.222a2.32,2.32,0,0,0,2.063-1.212l1.992-5.636A1.5,1.5,0,0,0,14.922,6Zm.452,1.712-2.008,5.678a.922.922,0,0,1-.871.616L5,14V8.3c1.434-.577,4.575-2.763,4.82-5.7a.687.687,0,0,1,.641-.6c.3,0,.56.371.586.969A7.526,7.526,0,0,1,10.174,7h4.749A.5.5,0,0,1,15.374,7.716Z" />
  <path class="fill" d="M12.729,15h0Z" />
</svg>