<svg width="43" height="43" xmlns="http://www.w3.org/2000/svg"><g fill-rule="nonzero" fill="none"><path d="M31.273 18.174c-.274-.122-.62-.174-1.058-.174-2.297 0-3.829 1.692-3.829 4.5 0 3.21 1.568 4.5 3.61 4.5.438 0 .912-.052 1.258-.192v-8.634h.019zm-8.796 4.37c0-4.28 2.775-7.622 7.325-7.622.389 0 .592 0 .962.037v-4.775c0-.11.093-.184.185-.184h2.978c.148 0 .185.055.185.147v16.786c0 .496 0 1.12.093 1.8 0 .128 0 .147-.111.202A11.084 11.084 0 0129.358 30c-4.014 0-6.88-2.461-6.88-7.456zm-5.904-2.886l4.884 10.046c.088.148.035.296-.104.296h-3.035c-.192 0-.28-.056-.367-.24a823.134 823.134 0 01-3.418-7.605h-.035c-1.047 2.48-2.198 5.18-3.314 7.623-.088.148-.175.203-.314.203H7.974c-.174 0-.192-.148-.105-.259l4.78-9.75-4.623-9.694c-.104-.148 0-.278.122-.278h3c.175 0 .262.037.315.204 1.099 2.46 2.215 4.884 3.261 7.363h.035c1.012-2.442 2.128-4.903 3.192-7.326.088-.148.14-.241.314-.241h2.809c.14 0 .191.111.104.278l-4.605 9.38z" fill="#FF2BC2"/><path fill="#FFF" d="M0 0h43v43H0z"/><path d="M27.364 0L43 39V0H27.364zM0 0v39L15.636 0H0zm21.824 14L32.25 39h-6.834l-3.113-7.973H14.66L21.824 14z" fill="red"/></g></svg>