<svg xmlns="http://www.w3.org/2000/svg" xml:space="preserve" style="enable-background:new 0 0 240 234" viewBox="0 0 240 234">
  <path d="M174.3 98.3c-1.5-.7-3.4-1-5.8-1-12.6 0-21 9.7-21 25.8 0 18.4 8.6 25.8 19.8 25.8 2.4 0 5-.3 6.9-1.1V98.3h.1zm-44.8 25.6c0-23.3 15-41.5 39.6-41.5 2.1 0 3.2 0 5.2.2v-26c0-.6.5-1 1-1h16.1c.8 0 1 .3 1 .8v91.4c0 2.7 0 6.1.5 9.8 0 .7 0 .8-.6 1.1-8.4 4-17.2 5.8-25.6 5.8-21.7 0-37.2-13.4-37.2-40.6zm-34.1-16.2 28 54.3c.5.8.2 1.6-.6 1.6h-17.4c-1.1 0-1.6-.3-2.1-1.3l-19.6-41.1h-.2c-6 13.4-12.6 28-19 41.2-.5.8-1 1.1-1.8 1.1H46.1c-1 0-1.1-.8-.6-1.4l27.4-52.7L46.4 57c-.6-.8 0-1.5.7-1.5h17.2c1 0 1.5.2 1.8 1.1C72.4 69.9 78.8 83 84.8 96.4h.2c5.8-13.2 12.2-26.5 18.3-39.6.5-.8.8-1.3 1.8-1.3h16.1c.8 0 1.1.6.6 1.5l-26.4 50.7z" style="fill:#ff2bc2"/>
  <path d="M0 0h239v233.5H0z" style="fill:#fff"/>
  <path d="m151.1.1 88.8 212.4V.1zM0 .1v212.4L88.8.1zm120.1 78.2 56.6 134.2h-37.1l-16.9-42.8H81.2z" style="fill:red"/>
</svg>
